:SAMPLES-PER-SECOND 30
:FULLY-SPECIFIED
:DEGREES
424
root  0.486961 32.446 55.3986 91.7713 10.7784 98.9727
Spine  -2.9985 -4.41221 -11.9735
Spine1  -2.19009 2.14414 6.05959
Neck  3.97569e-016 0 -2.38542e-015
Head  19.8444 -9.38966 27.9043
R_Clavicle  0.15628 -14.016 -1.38785
R_UpperArm  0.197423 -4.86536 12.4795
R_Forearm  13.9632 -13.0317 11.0597
R_Hand  0.340539 8.24149 -8.77522
L_Clavicle  -0.152807 7.75706 -0.883643
L_UpperArm  13.9804 -6.70517 -15.093
L_Forearm  -4.2986 16.6061 20.1379
L_Hand  0.126228 2.87905 1.81905
L_Thigh  14.6108 -10.1895 -26.7727
L_Calf  9.18142 -3.62331 27.4349
L_Foot  5.80301 6.97609 14.959
L_Toe0  0.505156 0.034446 -6.1361
R_Thigh  -5.30962 -6.33339 1.23606
R_Calf  -9.60391 10.6113 37.4789
R_Foot  1.45952 -0.957885 -14.5314
R_Toe0  -1.78853 -0.272788 -17.3235
425
root  0.739643 32.0684 56.3672 89.6296 11.3139 98.8354
Spine  -3.6032 -7.03541 -12.361
Spine1  -2.12482 7.49258 7.58957
Neck  3.97569e-016 0 -2.38542e-015
Head  24.5682 -11.9371 25.5087
R_Clavicle  0.251772 -14.4149 -0.233699
R_UpperArm  -0.833201 -2.37981 11.9791
R_Forearm  19.2048 -16.1931 14.0728
R_Hand  -0.201637 8.10586 -12.7821
L_Clavicle  -0.265201 10.9145 -0.88186
L_UpperArm  14.9983 -7.35052 -12.22
L_Forearm  -3.02628 17.8036 21.761
L_Hand  0.067391 2.61351 1.06746
L_Thigh  13.9311 -11.1225 -29.0633
L_Calf  6.34716 -3.55842 26.7432
L_Foot  7.25404 8.66878 17.6522
L_Toe0  0.505156 0.034446 -6.1361
R_Thigh  -1.79924 -6.25015 1.7213
R_Calf  -15.0394 10.3131 48.04
R_Foot  2.10623 2.17029 -16.1317
R_Toe0  -1.78853 -0.272788 -17.3235
426
root  0.768891 31.6028 57.3076 88.7371 11.856 97.8664
Spine  -4.34176 -9.71326 -11.2405
Spine1  -1.85459 14.1001 9.47042
Neck  3.97569e-016 0 -2.38542e-015
Head  29.2504 -14.8326 21.7087
R_Clavicle  0.343707 -14.8151 0.992972
R_UpperArm  -2.36619 1.154 10.4611
R_Forearm  24.7325 -21.8656 18.3708
R_Hand  -0.996216 8.40874 -18.9947
L_Clavicle  -0.347972 13.4273 -1.24671
L_UpperArm  12.7267 -6.36174 -9.18872
L_Forearm  -1.80286 19.7463 24.4838
L_Hand  -0.0819144 1.5133 -1.19684
L_Thigh  13.9643 -11.1479 -29.1954
L_Calf  5.42721 -2.86238 21.053
L_Foot  8.05412 8.10255 21.051
L_Toe0  0.369748 0.0473706 -6.25587
R_Thigh  -0.213241 -4.65115 2.80813
R_Calf  -18.4877 9.51986 48.9687
R_Foot  2.60763 5.21483 -17.1691
R_Toe0  -1.78853 -0.272788 -17.3235
427
root  0.558049 31.103 58.2944 87.7224 12.4615 95.2142
Spine  -4.72031 -8.14457 -8.65685
Spine1  -1.61636 17.045 10.6995
Neck  3.97569e-016 0 -2.38542e-015
Head  32.1842 -16.1905 17.963
R_Clavicle  0.356136 -15.2214 1.12007
R_UpperArm  9.47801 3.70923 9.85519
R_Forearm  21.4024 -31.1216 20.4548
R_Hand  -1.77714 10.0037 -24.4458
L_Clavicle  -0.351572 13.8178 -1.93102
L_UpperArm  9.02933 -3.61731 -7.2641
L_Forearm  -2.52625 22.8765 29.3091
L_Hand  -0.173605 0.169991 -3.45655
L_Thigh  12.7723 -9.58922 -27.2951
L_Calf  5.11888 -1.52789 10.8351
L_Foot  7.60437 6.20699 22.2681
L_Toe0  1.78582 -0.0786822 -5.26473
R_Thigh  -7.5098 -0.153313 3.93143
R_Calf  -14.5086 9.59113 42.1303
R_Foot  2.768 4.94739 -20.0971
R_Toe0  -1.78853 -0.272788 -17.3235
428
root  0.193587 30.5835 59.3587 86.9407 12.6529 91.7284
Spine  -4.64022 -3.30446 -5.73575
Spine1  -1.91742 16.2354 10.6242
Neck  3.97569e-016 0 -2.38542e-015
Head  32.4265 -15.204 15.6556
R_Clavicle  0.295759 -15.2487 0.173734
R_UpperArm  31.9323 4.17821 11.4948
R_Forearm  12.1184 -39.1413 22.0934
R_Hand  -2.07324 11.1845 -26.0924
L_Clavicle  -0.289725 12.8438 -2.50725
L_UpperArm  2.75064 -0.200556 -6.05842
L_Forearm  -3.04261 27.1747 34.8406
L_Hand  -0.192155 -0.145058 -4.02424
L_Thigh  10.467 -7.35155 -23.3802
L_Calf  3.28343 0.251613 -2.20685
L_Foot  6.56225 6.42756 18.4475
L_Toe0  5.93652 -0.578834 0.859168
R_Thigh  -14.6496 5.30542 4.97565
R_Calf  -10.2121 10.4434 33.9775
R_Foot  2.78749 2.99488 -23.1419
R_Toe0  -1.78853 -0.272788 -17.3235
429
root  -0.204473 30.0679 60.3644 87.4994 12.4221 88.8238
Spine  -4.45406 0.57665 -3.0351
Spine1  -2.26608 15.7647 10.1809
Neck  3.97569e-016 0 -2.38542e-015
Head  31.2224 -12.8316 13.6696
R_Clavicle  0.250365 -15.4822 -0.623445
R_UpperArm  36.2998 3.85898 15.369
R_Forearm  19.5224 -36.4147 23.191
R_Hand  -1.70437 9.7937 -24.0399
L_Clavicle  -0.26208 12.404 -2.66549
L_UpperArm  -10.0471 2.45798 -4.07499
L_Forearm  1.34664 31.9177 37.2044
L_Hand  -0.182845 0.756362 -3.22929
L_Thigh  8.38535 -5.65274 -17.8028
L_Calf  -1.20749 2.06212 -15.5747
L_Foot  5.68645 10.7658 10.1778
L_Toe0  -0.276452 -0.16475 6.04875
R_Thigh  -10.8632 8.84729 6.98349
R_Calf  -11.8594 8.29656 26.9617
R_Foot  2.59026 1.46923 -22.3667
R_Toe0  -1.78853 -0.272788 -17.3235
430
root  -0.571735 29.5364 61.2726 89.1759 12.3715 87.2753
Spine  -4.28959 1.68322 -1.14861
Spine1  -1.84856 17.2285 11.2887
Neck  3.97569e-016 0 -2.38542e-015
Head  30.3102 -10.7511 10.069
R_Clavicle  0.286087 -16.5034 -0.440228
R_UpperArm  28.6294 4.49722 20.757
R_Forearm  35.2263 -25.4162 19.7234
R_Hand  -1.32066 7.12943 -21.3878
L_Clavicle  -0.304168 13.0387 -2.35017
L_UpperArm  -13.3887 3.38381 -0.721199
L_Forearm  -0.775449 29.9586 36.6113
L_Hand  -0.206137 1.83889 -3.09456
L_Thigh  6.17034 -4.8525 -12.3295
L_Calf  -7.45551 3.46854 -26.601
L_Foot  4.93272 15.399 3.44613
L_Toe0  -5.8568 0.853564 0.962243
R_Thigh  -5.12005 9.72633 9.41025
R_Calf  -12.5689 6.1976 19.8338
R_Foot  2.07327 0.364652 -18.3514
R_Toe0  -1.75862 -0.276105 -17.384
431
root  -0.888403 29.167 62.2028 90.7027 12.5472 86.968
Spine  -3.95984 1.68316 -1.0307
Spine1  -0.735659 18.0879 14.388
Neck  3.97569e-016 0 -2.38542e-015
Head  29.7962 -9.75812 5.90748
R_Clavicle  0.343832 -17.4927 0.355612
R_UpperArm  31.6809 5.35714 26.6691
R_Forearm  37.3458 -12.5746 10.9705
R_Hand  -1.17797 5.46565 -20.1162
L_Clavicle  -0.351149 13.8191 -1.92611
L_UpperArm  -11.522 2.61338 3.64861
L_Forearm  -5.50707 24.6233 32.3542
L_Hand  -0.323264 2.34255 -4.53578
L_Thigh  2.52839 -4.34323 -9.09966
L_Calf  -12.7928 4.2481 -33.1943
L_Foot  4.99048 16.0832 3.16268
L_Toe0  -1.46629 0.0315756 -5.35514
R_Thigh  -0.378663 9.2387 10.4869
R_Calf  -13.6885 4.48598 14.2834
R_Foot  1.368 -1.69728 -14.6735
R_Toe0  -2.08514 -0.2439 -16.8476
432
root  -1.13879 29.1822 63.151 91.7145 12.3273 87.2165
Spine  -3.58127 2.23876 -2.63925
Spine1  -0.0256037 16.7848 16.9376
Neck  3.97569e-016 0 -2.38542e-015
Head  28.6942 -9.38359 4.69755
R_Clavicle  0.380121 -17.7326 1.1314
R_UpperArm  38.3888 5.09973 32.4074
R_Forearm  34.5694 -0.27286 0.199793
R_Hand  -1.02664 5.38342 -18.6938
L_Clavicle  -0.370482 14.1641 -1.72725
L_UpperArm  -13.5112 1.47707 8.95805
L_Forearm  -5.46464 21.0421 26.37
L_Hand  -0.421116 2.26435 -6.01103
L_Thigh  -2.17344 -3.51561 -8.67661
L_Calf  -14.1136 4.40917 -34.6216
L_Foot  5.47503 13.926 6.3666
L_Toe0  0.70207 0.0296278 -6.24933
R_Thigh  2.13201 8.76187 10.188
R_Calf  -14.2373 3.63347 11.5499
R_Foot  0.647458 -4.62151 -12.8757
R_Toe0  -2.83647 -0.120672 -14.1254
433
root  -1.31531 29.5191 64.0048 93.1629 11.27 87.8229
Spine  -3.63915 2.40742 -4.63767
Spine1  -0.43106 15.2337 16.2362
Neck  3.97569e-016 0 -2.38542e-015
Head  26.7559 -8.89419 7.83029
R_Clavicle  0.404598 -17.6694 1.72327
R_UpperArm  42.4009 4.90945 37.5423
R_Forearm  33.4201 8.65511 -7.29239
R_Hand  -0.696501 5.84614 -15.8066
L_Clavicle  -0.383418 14.3861 -1.52392
L_UpperArm  -14.8183 1.42154 15.2371
L_Forearm  -5.5573 18.3486 22.5114
L_Hand  -0.386127 2.1119 -5.6192
L_Thigh  -6.73768 -2.28227 -10.301
L_Calf  -13.3995 4.11651 -32.045
L_Foot  5.42063 12.3748 7.61579
L_Toe0  0.505156 0.0343861 -6.1361
R_Thigh  4.31624 7.80549 9.96951
R_Calf  -13.1375 3.40683 10.798
R_Foot  0.113909 -6.9487 -12.0888
R_Toe0  -1.26078 -0.148148 -12.7458
434
root  -1.43196 29.9236 64.7202 96.048 9.44106 89.0511
Spine  -4.40355 0.747663 -6.08031
Spine1  -1.66676 15.4355 12.6472
Neck  3.97569e-016 0 -2.38542e-015
Head  24.8991 -8.39537 12.7278
R_Clavicle  0.423861 -17.321 2.17856
R_UpperArm  44.6972 6.07609 41.4875
R_Forearm  32.4856 13.1023 -11.1754
R_Hand  -0.396224 6.35496 -13.4043
L_Clavicle  -0.39679 14.5677 -1.07661
L_UpperArm  -16.6844 2.57422 21.7042
L_Forearm  -6.15436 16.7319 20.3047
L_Hand  -0.259939 2.16242 -3.7239
L_Thigh  -10.4293 -0.671704 -13.136
L_Calf  -15.7347 3.55227 -27.2707
L_Foot  5.33622 13.0726 6.71553
L_Toe0  0.520314 0.0338804 -6.14476
R_Thigh  7.75316 5.38086 10.4666
R_Calf  -11.2243 3.33238 10.5203
R_Foot  -0.258847 -8.18989 -11.2557
R_Toe0  -1.02401 -0.198181 -13.7433
435
root  -1.53049 30.2058 65.3186 100.343 7.11023 90.5365
Spine  -5.60452 -1.97664 -7.45801
Spine1  -3.22061 16.9982 8.74699
Neck  3.97569e-016 0 -2.38542e-015
Head  23.8226 -8.58797 16.1911
R_Clavicle  0.451749 -15.741 2.64011
R_UpperArm  46.7858 7.46297 43.9865
R_Forearm  30.2385 14.9917 -12.879
R_Hand  -0.313343 7.36594 -13.2902
L_Clavicle  -0.386582 14.1395 -0.707014
L_UpperArm  -18.3891 3.88754 27.0846
L_Forearm  -7.86411 15.7431 18.9893
L_Hand  -0.145667 2.21364 -2.0297
L_Thigh  -12.7804 1.64853 -16.3344
L_Calf  -20.4703 2.72731 -20.6676
L_Foot  5.63297 15.1957 5.73781
L_Toe0  0.595704 0.0090322 -6.1968
R_Thigh  11.8871 1.93646 11.1655
R_Calf  -9.46693 3.24175 10.1987
R_Foot  -0.660697 -8.71431 -9.62817
R_Toe0  -1.00417 -0.197993 -13.6677
436
root  -1.6419 30.3741 65.8581 105.23 4.55751 91.827
Spine  -6.62566 -4.50104 -9.12812
Spine1  -4.65407 18.5455 5.60176
Neck  3.97569e-016 0 -2.38542e-015
Head  23.7212 -9.49164 17.5069
R_Clavicle  0.522154 -12.7162 3.30355
R_UpperArm  49.412 8.01956 45.8048
R_Forearm  28.132 15.3871 -13.2391
R_Hand  -0.383348 8.54092 -14.3791
L_Clavicle  -0.344323 12.9188 -0.686428
L_UpperArm  -19.0447 4.4776 30.7702
L_Forearm  -9.98329 15.3429 18.464
L_Hand  -0.0996061 2.13636 -1.37217
L_Thigh  -14.4677 4.69354 -19.448
L_Calf  -21.6518 1.53613 -11.6049
L_Foot  5.77734 17.0525 4.63414
L_Toe0  -2.00079 0.227075 -4.61944
R_Thigh  15.5266 -1.60407 11.5108
R_Calf  -7.479 3.24192 10.1745
R_Foot  -1.2181 -8.74476 -6.71203
R_Toe0  -0.534931 -0.225686 -13.8072
437
root  -1.76233 30.4745 66.3607 110.185 2.08245 92.9817
Spine  -7.22629 -6.73872 -9.99584
Spine1  -5.93702 19.7672 2.21513
Neck  3.97569e-016 0 -2.38542e-015
Head  25.0763 -10.4133 17.3124
R_Clavicle  0.657641 -9.48658 4.1937
R_UpperArm  52.1139 8.74246 47.6604
R_Forearm  27.1148 14.0886 -12.0549
R_Hand  -0.442144 8.86719 -14.9459
L_Clavicle  -0.303124 11.727 -0.664223
L_UpperArm  -19.4613 4.21112 32.8434
L_Forearm  -10.5756 15.2305 18.3174
L_Hand  -0.105697 1.85721 -1.52792
L_Thigh  -16.7565 7.83772 -22.7538
L_Calf  -15.7002 0.0914976 -0.928536
L_Foot  5.16622 16.1262 3.62254
L_Toe0  -11.284 1.49241 0.949449
R_Thigh  18.5471 -5.14561 11.6335
R_Calf  -5.62414 3.24678 10.1605
R_Foot  -1.81187 -8.29301 -2.99604
R_Toe0  -0.309111 -0.269453 -15.7824
438
root  -1.90569 30.5214 66.7459 115.69 0.0207824 93.8889
Spine  -7.73502 -8.5506 -9.33079
Spine1  -7.11817 21.1277 -0.99016
Neck  3.97569e-016 0 -2.38542e-015
Head  28.1829 -10.7096 15.9295
R_Clavicle  0.796962 -7.43803 4.96271
R_UpperArm  54.7556 10.4887 49.7264
R_Forearm  25.7644 11.1631 -9.4538
R_Hand  -0.465851 8.62925 -15.0314
L_Clavicle  -0.308277 11.5008 -0.352151
L_UpperArm  -21.8529 3.36067 33.0138
L_Forearm  -8.50018 14.9576 17.9612
L_Hand  -0.142538 1.38043 -2.25764
L_Thigh  -18.0566 10.559 -25.7419
L_Calf  -5.07505 -1.25062 8.98785
L_Foot  4.0379 11.4572 4.11623
L_Toe0  -14.2343 2.38769 2.28437
R_Thigh  21.5613 -8.70962 11.6235
R_Calf  -4.77382 3.06266 9.54954
R_Foot  -2.0157 -7.07738 -0.104668
R_Toe0  -1.38651 -0.267136 -17.1702
